<svg xmlns="http://www.w3.org/2000/svg" width="460" height="124" viewBox="0 0 460 124" fill="none"><line x1="460" y1="123.5" y2="123.5" stroke="#4B9EB0"></line><path d="M363.535 7.05326C363.535 7.05326 356.991 4.68724 352.602 6.08259C348.214 7.47793 346.974 10.2741 343.628 10.1307C340.984 10.0149 339.086 8.9174 338.066 6.12671C337.046 3.33602 336.942 -0.155106 327.951 0.396414C321.072 0.843145 320.409 1.87449 320.409 1.87449L320.173 20.3118C324.051 19.5838 328.022 19.0268 332.312 19.5176C333.361 19.7136 334.324 20.2339 335.065 21.006C335.807 21.7781 336.29 22.7636 336.448 23.825C337.051 27.7463 341.116 29.1692 343.524 29.103C346.974 29.0038 348.658 26.6157 351.56 25.8546C356.119 24.6688 364.1 27.6801 364.1 27.6801L363.535 7.05326Z" fill="#FF6D66"></path><path d="M339.176 21.9055C339.247 21.9055 339.28 18.8501 339.247 15.0777C339.214 11.3053 339.137 8.25537 339.065 8.25537C338.994 8.25537 338.961 11.3108 338.994 15.0832C339.027 18.8556 339.104 21.9055 339.176 21.9055Z" fill="#263238"></path><path d="M346.235 13.7427C346.164 13.7427 346.191 16.9029 346.295 20.7911C346.4 24.6793 346.548 27.8285 346.619 27.8285C346.691 27.8285 346.658 24.6738 346.554 20.7801C346.449 16.8863 346.274 13.7427 346.235 13.7427Z" fill="#263238"></path><g opacity="0.2"><path opacity="0.2" d="M346.503 24.7073C346.591 26.1192 346.597 28.0164 346.597 28.0164C345.587 28.7389 343.475 29.2132 342.285 28.8768H342.252C341.461 28.6467 340.742 28.215 340.166 27.6237C339.589 27.0324 339.174 26.3014 338.961 25.5015C338.805 24.9641 338.727 24.4067 338.731 23.8469C338.994 19.1535 339.339 13.3018 339.065 8.6084C340.063 9.4112 341.242 9.95487 342.498 10.1915C343.754 10.4281 345.048 10.3503 346.267 9.96514L346.503 24.7073Z" fill="black"></path></g><g opacity="0.6"><path opacity="0.6" d="M346.782 10.6221C346.988 10.5173 347.184 10.3956 347.369 10.2581L348.932 9.22124C350.63 8.04234 352.523 7.17759 354.522 6.66771C356.541 6.23588 358.634 6.30211 360.622 6.86074C361.437 7.1215 362.239 7.42338 363.024 7.76523C362.836 7.62865 362.636 7.50871 362.427 7.40674C361.863 7.11836 361.275 6.87851 360.671 6.68977C358.66 6.06175 356.521 5.96488 354.462 6.40849C352.432 6.92489 350.52 7.82725 348.828 9.06682C348.17 9.51907 347.654 9.90513 347.298 10.1699C347.109 10.3 346.936 10.4518 346.782 10.6221Z" fill="white"></path></g><g opacity="0.6"><path opacity="0.6" d="M330.602 1.65424C330.602 1.69836 331.09 1.62667 331.852 1.69836C332.852 1.78288 333.815 2.11661 334.654 2.66935C335.493 3.22209 336.181 3.97642 336.657 4.86409C337.03 5.54246 337.157 6.01677 337.206 6.00573C337.162 5.57629 337.034 5.15998 336.827 4.78136C336.374 3.83993 335.676 3.03937 334.807 2.46456C333.938 1.88975 332.93 1.5621 331.891 1.51636C331.456 1.46909 331.016 1.51611 330.602 1.65424Z" fill="white"></path></g><path d="M320.004 0L319 122.807L319.911 123L321.052 0.0441226L320.004 0Z" fill="#34383C"></path><path d="M270.981 124C271.006 123.685 271.006 123.368 270.981 123.053C270.948 122.445 270.875 121.562 270.721 120.488C270.535 119.231 270.286 117.986 269.975 116.76C269.611 115.242 269.143 113.757 268.575 112.32C267.604 109.678 266.212 107.256 264.468 105.17C264.166 104.812 263.843 104.477 263.501 104.167C263.355 104.025 263.224 103.887 263.091 103.794L262.714 103.507C262.49 103.315 262.252 103.145 262.001 103C261.961 103.06 263.001 103.746 264.335 105.33C266.021 107.433 267.373 109.842 268.335 112.454C268.897 113.872 269.374 115.33 269.761 116.82C270.076 118.038 270.337 119.274 270.541 120.522C270.718 121.588 270.818 122.46 270.875 123.064C270.889 123.379 270.924 123.692 270.981 124Z" fill="#408897"></path><path d="M219.019 124C218.994 123.685 218.994 123.368 219.019 123.053C219.052 122.445 219.125 121.562 219.279 120.488C219.465 119.231 219.714 117.986 220.025 116.76C220.389 115.242 220.857 113.757 221.425 112.32C222.396 109.678 223.788 107.256 225.532 105.17C225.834 104.812 226.157 104.477 226.499 104.167C226.645 104.025 226.776 103.887 226.909 103.794L227.286 103.507C227.51 103.315 227.748 103.145 227.999 103C228.039 103.06 226.999 103.746 225.665 105.33C223.979 107.433 222.627 109.842 221.665 112.454C221.103 113.872 220.626 115.33 220.239 116.82C219.924 118.038 219.663 119.274 219.459 120.522C219.282 121.588 219.182 122.46 219.125 123.064C219.111 123.379 219.076 123.692 219.019 124Z" fill="#408897"></path><path d="M251.99 124C252.003 123.82 252.003 123.639 251.99 123.459C251.971 123.112 251.93 122.607 251.845 121.993C251.742 121.275 251.603 120.564 251.43 119.863C251.229 118.995 250.968 118.147 250.653 117.326C250.113 115.816 249.34 114.432 248.371 113.24C248.203 113.035 248.024 112.844 247.834 112.667C247.753 112.586 247.68 112.507 247.606 112.454L247.397 112.29C247.272 112.18 247.14 112.083 247.001 112C246.978 112.034 247.556 112.426 248.297 113.331C249.234 114.533 249.985 115.91 250.519 117.402C250.832 118.213 251.097 119.046 251.312 119.897C251.487 120.593 251.632 121.299 251.745 122.012C251.843 122.622 251.899 123.12 251.93 123.465C251.938 123.645 251.958 123.824 251.99 124Z" fill="#408897"></path><path d="M196.99 124C197.003 123.76 197.003 123.519 196.99 123.279C196.971 122.816 196.93 122.142 196.845 121.324C196.742 120.366 196.603 119.418 196.43 118.484C196.229 117.327 195.968 116.196 195.653 115.101C195.113 113.088 194.34 111.242 193.371 109.653C193.203 109.381 193.024 109.125 192.834 108.889C192.753 108.781 192.68 108.676 192.606 108.605L192.397 108.386C192.272 108.24 192.14 108.111 192.001 108C191.978 108.045 192.556 108.568 193.297 109.775C194.234 111.378 194.985 113.213 195.519 115.203C195.832 116.283 196.097 117.395 196.312 118.529C196.487 119.458 196.632 120.399 196.745 121.35C196.843 122.162 196.899 122.827 196.93 123.287C196.938 123.527 196.958 123.765 196.99 124Z" fill="#408897"></path><path d="M218.99 124C219.003 123.865 219.003 123.729 218.99 123.594C218.971 123.334 218.93 122.955 218.845 122.495C218.742 121.956 218.603 121.423 218.43 120.897C218.229 120.247 217.968 119.61 217.653 118.994C217.113 117.862 216.34 116.824 215.371 115.93C215.203 115.777 215.024 115.633 214.834 115.5C214.753 115.439 214.68 115.38 214.606 115.34L214.397 115.217C214.272 115.135 214.14 115.062 214.001 115C213.978 115.026 214.556 115.32 215.297 115.999C216.234 116.9 216.985 117.932 217.519 119.052C217.832 119.659 218.097 120.284 218.312 120.923C218.487 121.445 218.632 121.975 218.745 122.509C218.843 122.966 218.899 123.34 218.93 123.599C218.938 123.734 218.958 123.868 218.99 124Z" fill="#408897"></path><path d="M255.01 124C254.997 123.73 254.997 123.458 255.01 123.188C255.029 122.668 255.07 121.91 255.155 120.99C255.258 119.912 255.397 118.845 255.57 117.794C255.771 116.493 256.032 115.221 256.347 113.989C256.887 111.724 257.66 109.648 258.629 107.86C258.797 107.553 258.976 107.266 259.166 107C259.247 106.879 259.32 106.761 259.394 106.681L259.603 106.435C259.728 106.27 259.86 106.125 259.999 106C260.022 106.051 259.444 106.639 258.703 107.997C257.766 109.8 257.015 111.865 256.481 114.104C256.168 115.319 255.903 116.569 255.688 117.846C255.513 118.89 255.368 119.949 255.255 121.019C255.157 121.933 255.101 122.68 255.07 123.198C255.062 123.468 255.042 123.736 255.01 124Z" fill="#408897"></path><path d="M271.019 124C270.994 123.775 270.994 123.549 271.019 123.324C271.052 122.89 271.125 122.258 271.279 121.492C271.465 120.594 271.714 119.704 272.025 118.829C272.389 117.744 272.857 116.684 273.425 115.657C274.396 113.77 275.788 112.04 277.532 110.55C277.834 110.294 278.157 110.055 278.499 109.833C278.645 109.732 278.776 109.634 278.909 109.567L279.286 109.362C279.51 109.225 279.748 109.104 279.999 109C280.039 109.043 278.999 109.533 277.665 110.664C275.979 112.166 274.627 113.887 273.665 115.753C273.103 116.766 272.626 117.807 272.239 118.871C271.924 119.742 271.663 120.624 271.459 121.516C271.282 122.277 271.182 122.9 271.125 123.332C271.111 123.556 271.076 123.78 271.019 124Z" fill="#408897"></path><path d="M291.981 124C292.006 123.685 292.006 123.368 291.981 123.053C291.948 122.445 291.875 121.562 291.721 120.488C291.535 119.231 291.286 117.986 290.975 116.76C290.611 115.242 290.143 113.757 289.575 112.32C288.604 109.678 287.212 107.256 285.468 105.17C285.166 104.812 284.843 104.477 284.501 104.167C284.355 104.025 284.224 103.887 284.091 103.794L283.714 103.507C283.49 103.315 283.252 103.145 283.001 103C282.961 103.06 284.001 103.746 285.335 105.33C287.021 107.433 288.373 109.842 289.335 112.454C289.897 113.872 290.374 115.33 290.761 116.82C291.076 118.038 291.337 119.274 291.541 120.522C291.718 121.588 291.818 122.46 291.875 123.064C291.889 123.379 291.924 123.692 291.981 124Z" fill="#408897"></path><path d="M303.981 124C304.006 123.805 304.006 123.609 303.981 123.414C303.948 123.038 303.875 122.491 303.721 121.826C303.535 121.048 303.286 120.277 302.975 119.518C302.611 118.578 302.143 117.659 301.575 116.77C300.604 115.134 299.212 113.635 297.468 112.343C297.166 112.122 296.843 111.914 296.501 111.722C296.355 111.635 296.224 111.549 296.091 111.492L295.714 111.314C295.49 111.195 295.252 111.09 295.001 111C294.961 111.037 296.001 111.462 297.335 112.442C299.021 113.744 300.373 115.236 301.335 116.853C301.897 117.73 302.374 118.633 302.761 119.555C303.076 120.31 303.337 121.074 303.541 121.847C303.718 122.507 303.818 123.047 303.875 123.421C303.889 123.615 303.924 123.809 303.981 124Z" fill="#408897"></path><path d="M311.019 124C310.994 123.685 310.994 123.368 311.019 123.053C311.052 122.445 311.125 121.562 311.279 120.488C311.465 119.231 311.714 117.986 312.025 116.76C312.389 115.242 312.857 113.757 313.425 112.32C314.396 109.678 315.788 107.256 317.532 105.17C317.834 104.812 318.157 104.477 318.499 104.167C318.645 104.025 318.776 103.887 318.909 103.794L319.286 103.507C319.51 103.315 319.748 103.145 319.999 103C320.039 103.06 318.999 103.746 317.665 105.33C315.979 107.433 314.627 109.842 313.665 112.454C313.103 113.872 312.626 115.33 312.239 116.82C311.924 118.038 311.663 119.274 311.459 120.522C311.282 121.588 311.182 122.46 311.125 123.064C311.111 123.379 311.076 123.692 311.019 124Z" fill="#408897"></path><path d="M329.981 124C330.006 123.79 330.006 123.579 329.981 123.369C329.948 122.964 329.875 122.375 329.721 121.659C329.535 120.821 329.286 119.991 328.975 119.173C328.611 118.161 328.143 117.172 327.575 116.213C326.604 114.452 325.212 112.837 323.468 111.446C323.166 111.208 322.843 110.985 322.501 110.778C322.355 110.683 322.224 110.592 322.091 110.529L321.714 110.338C321.49 110.21 321.252 110.097 321.001 110C320.961 110.04 322.001 110.497 323.335 111.553C325.021 112.955 326.373 114.562 327.335 116.303C327.897 117.248 328.374 118.22 328.761 119.213C329.076 120.026 329.337 120.849 329.541 121.681C329.718 122.392 329.818 122.974 329.875 123.376C329.889 123.586 329.924 123.794 329.981 124Z" fill="#408897"></path><path d="M331.019 124C330.994 123.58 330.994 123.157 331.019 122.737C331.052 121.927 331.125 120.749 331.279 119.318C331.465 117.641 331.714 115.982 332.025 114.347C332.389 112.323 332.857 110.343 333.425 108.427C334.396 104.905 335.788 101.674 337.532 98.893C337.834 98.4159 338.157 97.9693 338.499 97.5558C338.645 97.3669 338.776 97.183 338.909 97.0588L339.286 96.676C339.51 96.4201 339.748 96.1939 339.999 96C340.039 96.0795 338.999 96.9941 337.665 99.1067C335.979 101.911 334.627 105.123 333.665 108.606C333.103 110.496 332.626 112.441 332.239 114.426C331.924 116.051 331.663 117.699 331.459 119.362C331.282 120.784 331.182 121.947 331.125 122.752C331.111 123.172 331.076 123.589 331.019 124Z" fill="#408897"></path><path d="M343.019 124C342.994 123.82 342.994 123.639 343.019 123.459C343.052 123.112 343.125 122.607 343.279 121.993C343.465 121.275 343.714 120.564 344.025 119.863C344.389 118.995 344.857 118.147 345.425 117.326C346.396 115.816 347.788 114.432 349.532 113.24C349.834 113.035 350.157 112.844 350.499 112.667C350.645 112.586 350.776 112.507 350.909 112.454L351.286 112.29C351.51 112.18 351.748 112.083 351.999 112C352.039 112.034 350.999 112.426 349.665 113.331C347.979 114.533 346.627 115.91 345.665 117.402C345.103 118.213 344.626 119.046 344.239 119.897C343.924 120.593 343.663 121.299 343.459 122.012C343.282 122.622 343.182 123.12 343.125 123.465C343.111 123.645 343.076 123.824 343.019 124Z" fill="#408897"></path><path d="M357.981 124C358.006 123.685 358.006 123.368 357.981 123.053C357.948 122.445 357.875 121.562 357.721 120.488C357.535 119.231 357.286 117.986 356.975 116.76C356.611 115.242 356.143 113.757 355.575 112.32C354.604 109.678 353.212 107.256 351.468 105.17C351.166 104.812 350.843 104.477 350.501 104.167C350.355 104.025 350.224 103.887 350.091 103.794L349.714 103.507C349.49 103.315 349.252 103.145 349.001 103C348.961 103.06 350.001 103.746 351.335 105.33C353.021 107.433 354.373 109.842 355.335 112.454C355.897 113.872 356.374 115.33 356.761 116.82C357.076 118.038 357.337 119.274 357.541 120.522C357.718 121.588 357.818 122.46 357.875 123.064C357.889 123.379 357.924 123.692 357.981 124Z" fill="#408897"></path><path d="M360.019 124C359.994 123.805 359.994 123.609 360.019 123.414C360.052 123.038 360.125 122.491 360.279 121.826C360.465 121.048 360.714 120.277 361.025 119.518C361.389 118.578 361.857 117.659 362.425 116.77C363.396 115.134 364.788 113.635 366.532 112.343C366.834 112.122 367.157 111.914 367.499 111.722C367.645 111.635 367.776 111.549 367.909 111.492L368.286 111.314C368.51 111.195 368.748 111.09 368.999 111C369.039 111.037 367.999 111.462 366.665 112.442C364.979 113.744 363.627 115.236 362.665 116.853C362.103 117.73 361.626 118.633 361.239 119.555C360.924 120.31 360.663 121.074 360.459 121.847C360.282 122.507 360.182 123.047 360.125 123.421C360.111 123.615 360.076 123.809 360.019 124Z" fill="#408897"></path><path d="M390.981 124C391.006 123.745 391.006 123.488 390.981 123.233C390.948 122.742 390.875 122.026 390.721 121.157C390.535 120.139 390.286 119.132 389.975 118.139C389.611 116.91 389.143 115.708 388.575 114.545C387.604 112.406 386.212 110.445 384.468 108.756C384.166 108.467 383.843 108.196 383.501 107.945C383.355 107.83 383.224 107.718 383.091 107.643L382.714 107.41C382.49 107.255 382.252 107.118 382.001 107C381.961 107.048 383.001 107.604 384.335 108.886C386.021 110.589 387.373 112.539 388.335 114.653C388.897 115.801 389.374 116.982 389.761 118.187C390.076 119.174 390.337 120.174 390.541 121.184C390.718 122.047 390.818 122.754 390.875 123.243C390.889 123.497 390.924 123.75 390.981 124Z" fill="#408897"></path><path d="M391.019 124C390.994 123.79 390.994 123.579 391.019 123.369C391.052 122.964 391.125 122.375 391.279 121.659C391.465 120.821 391.714 119.991 392.025 119.173C392.389 118.161 392.857 117.172 393.425 116.213C394.396 114.452 395.788 112.837 397.532 111.446C397.834 111.208 398.157 110.985 398.499 110.778C398.645 110.683 398.776 110.592 398.909 110.529L399.286 110.338C399.51 110.21 399.748 110.097 399.999 110C400.039 110.04 398.999 110.497 397.665 111.553C395.979 112.955 394.627 114.562 393.665 116.303C393.103 117.248 392.626 118.22 392.239 119.213C391.924 120.026 391.663 120.849 391.459 121.681C391.282 122.392 391.182 122.974 391.125 123.376C391.111 123.586 391.076 123.794 391.019 124Z" fill="#408897"></path><path d="M411.981 124C412.006 123.835 412.006 123.669 411.981 123.504C411.948 123.186 411.875 122.723 411.721 122.16C411.535 121.502 411.286 120.85 410.975 120.208C410.611 119.412 410.143 118.635 409.575 117.882C408.604 116.498 407.212 115.229 405.468 114.137C405.166 113.949 404.843 113.774 404.501 113.611C404.355 113.537 404.224 113.465 404.091 113.416L403.714 113.266C403.49 113.165 403.252 113.076 403.001 113C402.961 113.031 404.001 113.391 405.335 114.22C407.021 115.322 408.373 116.584 409.335 117.952C409.897 118.695 410.374 119.459 410.761 120.239C411.076 120.877 411.337 121.524 411.541 122.178C411.718 122.737 411.818 123.194 411.875 123.51C411.889 123.675 411.924 123.838 411.981 124Z" fill="#408897"></path><path d="M415.019 124C414.994 123.685 414.994 123.368 415.019 123.053C415.052 122.445 415.125 121.562 415.279 120.488C415.465 119.231 415.714 117.986 416.025 116.76C416.389 115.242 416.857 113.757 417.425 112.32C418.396 109.678 419.788 107.256 421.532 105.17C421.834 104.812 422.157 104.477 422.499 104.167C422.645 104.025 422.776 103.887 422.909 103.794L423.286 103.507C423.51 103.315 423.748 103.145 423.999 103C424.039 103.06 422.999 103.746 421.665 105.33C419.979 107.433 418.627 109.842 417.665 112.454C417.103 113.872 416.626 115.33 416.239 116.82C415.924 118.038 415.663 119.274 415.459 120.522C415.282 121.588 415.182 122.46 415.125 123.064C415.111 123.379 415.076 123.692 415.019 124Z" fill="#408897"></path><path d="M415.019 124C414.994 123.685 414.994 123.368 415.019 123.053C415.052 122.445 415.125 121.562 415.279 120.488C415.465 119.231 415.714 117.986 416.025 116.76C416.389 115.242 416.857 113.757 417.425 112.32C418.396 109.678 419.788 107.256 421.532 105.17C421.834 104.812 422.157 104.477 422.499 104.167C422.645 104.025 422.776 103.887 422.909 103.794L423.286 103.507C423.51 103.315 423.748 103.145 423.999 103C424.039 103.06 422.999 103.746 421.665 105.33C419.979 107.433 418.627 109.842 417.665 112.454C417.103 113.872 416.626 115.33 416.239 116.82C415.924 118.038 415.663 119.274 415.459 120.522C415.282 121.588 415.182 122.46 415.125 123.064C415.111 123.379 415.076 123.692 415.019 124Z" fill="#408897"></path><path d="M427.019 124C426.994 123.82 426.994 123.639 427.019 123.459C427.052 123.112 427.125 122.607 427.279 121.993C427.465 121.275 427.714 120.564 428.025 119.863C428.389 118.995 428.857 118.147 429.425 117.326C430.396 115.816 431.788 114.432 433.532 113.24C433.834 113.035 434.157 112.844 434.499 112.667C434.645 112.586 434.776 112.507 434.909 112.454L435.286 112.29C435.51 112.18 435.748 112.083 435.999 112C436.039 112.034 434.999 112.426 433.665 113.331C431.979 114.533 430.627 115.91 429.665 117.402C429.103 118.213 428.626 119.046 428.239 119.897C427.924 120.593 427.663 121.299 427.459 122.012C427.282 122.622 427.182 123.12 427.125 123.465C427.111 123.645 427.076 123.824 427.019 124Z" fill="#408897"></path><path d="M439.019 124C438.994 123.61 438.994 123.218 439.019 122.828C439.052 122.075 439.125 120.981 439.279 119.652C439.465 118.095 439.714 116.554 440.025 115.036C440.389 113.157 440.857 111.319 441.425 109.539C442.396 106.269 443.788 103.269 445.532 100.686C445.834 100.243 446.157 99.8286 446.499 99.4447C446.645 99.2693 446.776 99.0985 446.909 98.9831L447.286 98.6277C447.51 98.3901 447.748 98.1801 447.999 98C448.039 98.0739 446.999 98.9231 445.665 100.885C443.979 103.488 442.627 106.471 441.665 109.705C441.103 111.461 440.626 113.266 440.239 115.11C439.924 116.619 439.663 118.149 439.459 119.694C439.282 121.014 439.182 122.094 439.125 122.841C439.111 123.231 439.076 123.618 439.019 124Z" fill="#408897"></path><path d="M459.981 124C460.006 123.685 460.006 123.368 459.981 123.053C459.948 122.445 459.875 121.562 459.721 120.488C459.535 119.231 459.286 117.986 458.975 116.76C458.611 115.242 458.143 113.757 457.575 112.32C456.604 109.678 455.212 107.256 453.468 105.17C453.166 104.812 452.843 104.477 452.501 104.167C452.355 104.025 452.224 103.887 452.091 103.794L451.714 103.507C451.49 103.315 451.252 103.145 451.001 103C450.961 103.06 452.001 103.746 453.335 105.33C455.021 107.433 456.373 109.842 457.335 112.454C457.897 113.872 458.374 115.33 458.761 116.82C459.076 118.038 459.337 119.274 459.541 120.522C459.718 121.588 459.818 122.46 459.875 123.064C459.889 123.379 459.924 123.692 459.981 124Z" fill="#408897"></path><path d="M138.981 124C139.006 123.741 139.006 123.481 138.981 123.222C138.948 122.723 138.875 121.997 138.721 121.115C138.535 120.083 138.286 119.06 137.975 118.053C137.611 116.806 137.143 115.586 136.575 114.406C135.604 112.236 134.212 110.246 132.468 108.532C132.166 108.238 131.843 107.963 131.501 107.709C131.355 107.592 131.224 107.479 131.091 107.402L130.714 107.166C130.49 107.009 130.252 106.869 130.001 106.75C129.961 106.799 131.001 107.362 132.335 108.664C134.021 110.391 135.373 112.37 136.335 114.516C136.897 115.681 137.374 116.879 137.761 118.102C138.076 119.103 138.337 120.118 138.541 121.143C138.718 122.019 138.818 122.735 138.875 123.231C138.889 123.49 138.924 123.747 138.981 124Z" fill="#408897"></path><path d="M87.0185 124C86.9938 123.741 86.9938 123.481 87.0185 123.222C87.0519 122.723 87.1252 121.997 87.2785 121.115C87.465 120.083 87.7143 119.06 88.0252 118.053C88.3886 116.806 88.8567 115.586 89.4253 114.406C90.3962 112.236 91.7877 110.246 93.5321 108.532C93.8342 108.238 94.1572 107.963 94.4988 107.709C94.6455 107.592 94.7755 107.479 94.9088 107.402L95.2855 107.166C95.5096 107.009 95.7483 106.869 95.9989 106.75C96.0389 106.799 94.9988 107.362 93.6655 108.664C91.9794 110.391 90.6266 112.37 89.6653 114.516C89.1027 115.681 88.626 116.879 88.2386 118.102C87.9236 119.103 87.6632 120.118 87.4586 121.143C87.2819 122.019 87.1819 122.735 87.1252 123.231C87.1114 123.49 87.0757 123.747 87.0185 124Z" fill="#408897"></path><path d="M119.99 124C120.003 123.852 120.003 123.704 119.99 123.556C119.971 123.271 119.93 122.856 119.845 122.352C119.742 121.762 119.603 121.177 119.43 120.602C119.229 119.889 118.968 119.192 118.653 118.518C118.113 117.278 117.34 116.141 116.371 115.162C116.203 114.994 116.024 114.836 115.834 114.691C115.753 114.624 115.68 114.56 115.606 114.516L115.397 114.381C115.272 114.291 115.14 114.211 115.001 114.143C114.978 114.171 115.556 114.493 116.297 115.237C117.234 116.224 117.985 117.355 118.519 118.581C118.832 119.246 119.097 119.931 119.312 120.63C119.487 121.202 119.632 121.782 119.745 122.368C119.843 122.868 119.899 123.278 119.93 123.561C119.938 123.709 119.958 123.855 119.99 124Z" fill="#408897"></path><path d="M64.9897 124C65.0034 123.803 65.0034 123.604 64.9897 123.407C64.9712 123.027 64.9304 122.474 64.8453 121.802C64.7417 121.015 64.6032 120.236 64.4304 119.469C64.2285 118.519 63.9685 117.589 63.6526 116.69C63.1132 115.037 62.3402 113.52 61.371 112.215C61.2032 111.991 61.0238 111.781 60.834 111.587C60.7525 111.499 60.6803 111.412 60.6062 111.354L60.3969 111.174C60.2724 111.054 60.1398 110.948 60.0006 110.857C59.9784 110.894 60.5562 111.324 61.297 112.315C62.2337 113.631 62.9852 115.139 63.5193 116.774C63.8318 117.661 64.0966 118.574 64.3119 119.506C64.4869 120.269 64.6315 121.042 64.7452 121.823C64.8434 122.49 64.899 123.036 64.9304 123.414C64.9381 123.611 64.9579 123.807 64.9897 124Z" fill="#408897"></path><path d="M86.9897 124C87.0034 123.889 87.0034 123.777 86.9897 123.666C86.9712 123.453 86.9304 123.141 86.8453 122.763C86.7417 122.321 86.6032 121.883 86.4304 121.451C86.2285 120.917 85.9685 120.394 85.6526 119.888C85.1132 118.958 84.3402 118.105 83.371 117.371C83.2032 117.245 83.0238 117.127 82.834 117.018C82.7525 116.968 82.6803 116.919 82.6062 116.886L82.3969 116.785C82.2724 116.718 82.1398 116.658 82.0006 116.607C81.9784 116.628 82.5562 116.869 83.297 117.427C84.2337 118.168 84.9852 119.016 85.5193 119.935C85.8318 120.434 86.0966 120.948 86.3119 121.472C86.4869 121.901 86.6315 122.336 86.7452 122.775C86.8434 123.151 86.899 123.458 86.9304 123.67C86.9381 123.781 86.9579 123.891 86.9897 124Z" fill="#408897"></path><path d="M123.01 124C122.997 123.778 122.997 123.555 123.01 123.333C123.029 122.906 123.07 122.283 123.155 121.527C123.258 120.642 123.397 119.766 123.57 118.903C123.771 117.834 124.032 116.788 124.347 115.776C124.887 113.917 125.66 112.211 126.629 110.742C126.797 110.49 126.976 110.254 127.166 110.036C127.247 109.936 127.32 109.839 127.394 109.773L127.603 109.571C127.728 109.436 127.86 109.317 127.999 109.214C128.022 109.256 127.444 109.739 126.703 110.855C125.766 112.336 125.015 114.032 124.481 115.871C124.168 116.869 123.903 117.896 123.688 118.945C123.513 119.803 123.368 120.673 123.255 121.551C123.157 122.302 123.101 122.916 123.07 123.341C123.062 123.563 123.042 123.783 123.01 124Z" fill="#408897"></path><path d="M139.019 124C138.994 123.815 138.994 123.629 139.019 123.445C139.052 123.088 139.125 122.57 139.279 121.94C139.465 121.202 139.714 120.472 140.025 119.752C140.389 118.861 140.857 117.99 141.425 117.147C142.396 115.597 143.788 114.176 145.532 112.952C145.834 112.742 146.157 112.545 146.499 112.363C146.645 112.28 146.776 112.199 146.909 112.145L147.286 111.976C147.51 111.864 147.748 111.764 147.999 111.679C148.039 111.714 146.999 112.116 145.665 113.046C143.979 114.28 142.627 115.693 141.665 117.226C141.103 118.058 140.626 118.913 140.239 119.787C139.924 120.502 139.663 121.227 139.459 121.959C139.282 122.585 139.182 123.097 139.125 123.451C139.111 123.636 139.076 123.819 139.019 124Z" fill="#408897"></path><path d="M159.981 124C160.006 123.741 160.006 123.481 159.981 123.222C159.948 122.723 159.875 121.997 159.721 121.115C159.535 120.083 159.286 119.06 158.975 118.053C158.611 116.806 158.143 115.586 157.575 114.406C156.604 112.236 155.212 110.246 153.468 108.532C153.166 108.238 152.843 107.963 152.501 107.709C152.355 107.592 152.224 107.479 152.091 107.402L151.714 107.166C151.49 107.009 151.252 106.869 151.001 106.75C150.961 106.799 152.001 107.362 153.335 108.664C155.021 110.391 156.373 112.37 157.335 114.516C157.897 115.681 158.374 116.879 158.761 118.102C159.076 119.103 159.337 120.118 159.541 121.143C159.718 122.019 159.818 122.735 159.875 123.231C159.889 123.49 159.924 123.747 159.981 124Z" fill="#408897"></path><path d="M171.981 124C172.006 123.84 172.006 123.679 171.981 123.518C171.948 123.209 171.875 122.76 171.721 122.214C171.535 121.575 171.286 120.942 170.975 120.318C170.611 119.546 170.143 118.791 169.575 118.061C168.604 116.717 167.212 115.485 165.468 114.425C165.166 114.243 164.843 114.072 164.501 113.915C164.355 113.843 164.224 113.772 164.091 113.725L163.714 113.579C163.49 113.482 163.252 113.395 163.001 113.321C162.961 113.352 164.001 113.7 165.335 114.506C167.021 115.575 168.373 116.801 169.335 118.129C169.897 118.85 170.374 119.591 170.761 120.349C171.076 120.968 171.337 121.597 171.541 122.231C171.718 122.773 171.818 123.217 171.875 123.524C171.889 123.684 171.924 123.843 171.981 124Z" fill="#408897"></path><path d="M179.019 124C178.994 123.741 178.994 123.481 179.019 123.222C179.052 122.723 179.125 121.997 179.279 121.115C179.465 120.083 179.714 119.06 180.025 118.053C180.389 116.806 180.857 115.586 181.425 114.406C182.396 112.236 183.788 110.246 185.532 108.532C185.834 108.238 186.157 107.963 186.499 107.709C186.645 107.592 186.776 107.479 186.909 107.402L187.286 107.166C187.51 107.009 187.748 106.869 187.999 106.75C188.039 106.799 186.999 107.362 185.665 108.664C183.979 110.391 182.627 112.37 181.665 114.516C181.103 115.681 180.626 116.879 180.239 118.102C179.924 119.103 179.663 120.118 179.459 121.143C179.282 122.019 179.182 122.735 179.125 123.231C179.111 123.49 179.076 123.747 179.019 124Z" fill="#408897"></path><path d="M197.981 124C198.006 123.827 198.006 123.654 197.981 123.481C197.948 123.149 197.875 122.665 197.721 122.077C197.535 121.388 197.286 120.707 196.975 120.035C196.611 119.204 196.143 118.391 195.575 117.604C194.604 116.157 193.212 114.831 191.468 113.688C191.166 113.492 190.843 113.309 190.501 113.139C190.355 113.061 190.224 112.986 190.091 112.935L189.714 112.778C189.49 112.673 189.252 112.58 189.001 112.5C188.961 112.533 190.001 112.908 191.335 113.776C193.021 114.928 194.373 116.247 195.335 117.677C195.897 118.454 196.374 119.252 196.761 120.068C197.076 120.735 197.337 121.412 197.541 122.095C197.718 122.679 197.818 123.157 197.875 123.488C197.889 123.66 197.924 123.831 197.981 124Z" fill="#408897"></path><path d="M199.019 124C198.994 123.655 198.994 123.308 199.019 122.963C199.052 122.297 199.125 121.33 199.279 120.154C199.465 118.777 199.714 117.414 200.025 116.071C200.389 114.408 200.857 112.782 201.425 111.208C202.396 108.314 203.788 105.661 205.532 103.376C205.834 102.985 206.157 102.618 206.499 102.278C206.645 102.123 206.776 101.972 206.909 101.87L207.286 101.555C207.51 101.345 207.748 101.159 207.999 101C208.039 101.065 206.999 101.817 205.665 103.552C203.979 105.855 202.627 108.494 201.665 111.355C201.103 112.907 200.626 114.505 200.239 116.136C199.924 117.471 199.663 118.824 199.459 120.19C199.282 121.358 199.182 122.314 199.125 122.975C199.111 123.32 199.076 123.662 199.019 124Z" fill="#408897"></path><path d="M211.019 124C210.994 123.852 210.994 123.704 211.019 123.556C211.052 123.271 211.125 122.856 211.279 122.352C211.465 121.762 211.714 121.177 212.025 120.602C212.389 119.889 212.857 119.192 213.425 118.518C214.396 117.278 215.788 116.141 217.532 115.162C217.834 114.994 218.157 114.836 218.499 114.691C218.645 114.624 218.776 114.56 218.909 114.516L219.286 114.381C219.51 114.291 219.748 114.211 219.999 114.143C220.039 114.171 218.999 114.493 217.665 115.237C215.979 116.224 214.627 117.355 213.665 118.581C213.103 119.246 212.626 119.931 212.239 120.63C211.924 121.202 211.663 121.782 211.459 122.368C211.282 122.868 211.182 123.278 211.125 123.561C211.111 123.709 211.076 123.855 211.019 124Z" fill="#408897"></path><path d="M225.981 124C226.006 123.741 226.006 123.481 225.981 123.222C225.948 122.723 225.875 121.997 225.721 121.115C225.535 120.083 225.286 119.06 224.975 118.053C224.611 116.806 224.143 115.586 223.575 114.406C222.604 112.236 221.212 110.246 219.468 108.532C219.166 108.238 218.843 107.963 218.501 107.709C218.355 107.592 218.224 107.479 218.091 107.402L217.714 107.166C217.49 107.009 217.252 106.869 217.001 106.75C216.961 106.799 218.001 107.362 219.335 108.664C221.021 110.391 222.373 112.37 223.335 114.516C223.897 115.681 224.374 116.879 224.761 118.102C225.076 119.103 225.337 120.118 225.541 121.143C225.718 122.019 225.818 122.735 225.875 123.231C225.889 123.49 225.924 123.747 225.981 124Z" fill="#408897"></path><path d="M228.019 124C227.994 123.84 227.994 123.679 228.019 123.518C228.052 123.209 228.125 122.76 228.279 122.214C228.465 121.575 228.714 120.942 229.025 120.318C229.389 119.546 229.857 118.791 230.425 118.061C231.396 116.717 232.788 115.485 234.532 114.425C234.834 114.243 235.157 114.072 235.499 113.915C235.645 113.843 235.776 113.772 235.909 113.725L236.286 113.579C236.51 113.482 236.748 113.395 236.999 113.321C237.039 113.352 235.999 113.7 234.665 114.506C232.979 115.575 231.627 116.801 230.665 118.129C230.103 118.85 229.626 119.591 229.239 120.349C228.924 120.968 228.663 121.597 228.459 122.231C228.282 122.773 228.182 123.217 228.125 123.524C228.111 123.684 228.076 123.843 228.019 124Z" fill="#408897"></path><path d="M258.981 124C259.006 123.79 259.006 123.58 258.981 123.37C258.948 122.966 258.875 122.379 258.721 121.665C258.535 120.829 258.286 120.001 257.975 119.186C257.611 118.176 257.143 117.189 256.575 116.233C255.604 114.477 254.212 112.866 252.468 111.478C252.166 111.241 251.843 111.018 251.501 110.812C251.355 110.717 251.224 110.626 251.091 110.564L250.714 110.373C250.49 110.245 250.252 110.132 250.001 110.036C249.961 110.075 251.001 110.531 252.335 111.585C254.021 112.983 255.373 114.586 256.335 116.322C256.897 117.265 257.374 118.235 257.761 119.225C258.076 120.036 258.337 120.857 258.541 121.687C258.718 122.396 258.818 122.976 258.875 123.378C258.889 123.587 258.924 123.795 258.981 124Z" fill="#408897"></path><path d="M259.019 124C258.994 123.827 258.994 123.654 259.019 123.481C259.052 123.149 259.125 122.665 259.279 122.077C259.465 121.388 259.714 120.707 260.025 120.035C260.389 119.204 260.857 118.391 261.425 117.604C262.396 116.157 263.788 114.831 265.532 113.688C265.834 113.492 266.157 113.309 266.499 113.139C266.645 113.061 266.776 112.986 266.909 112.935L267.286 112.778C267.51 112.673 267.748 112.58 267.999 112.5C268.039 112.533 266.999 112.908 265.665 113.776C263.979 114.928 262.627 116.247 261.665 117.677C261.103 118.454 260.626 119.252 260.239 120.068C259.924 120.735 259.663 121.412 259.459 122.095C259.282 122.679 259.182 123.157 259.125 123.488C259.111 123.66 259.076 123.831 259.019 124Z" fill="#408897"></path><path d="M279.981 124C280.006 123.865 280.006 123.728 279.981 123.593C279.948 123.331 279.875 122.951 279.721 122.489C279.535 121.948 279.286 121.413 278.975 120.885C278.611 120.232 278.143 119.593 277.575 118.975C276.604 117.838 275.212 116.795 273.468 115.898C273.166 115.744 272.843 115.6 272.501 115.466C272.355 115.405 272.224 115.346 272.091 115.306L271.714 115.183C271.49 115.1 271.252 115.027 271.001 114.964C270.961 114.99 272.001 115.285 273.335 115.967C275.021 116.872 276.373 117.908 277.335 119.032C277.897 119.642 278.374 120.27 278.761 120.911C279.076 121.435 279.337 121.967 279.541 122.503C279.718 122.962 279.818 123.338 279.875 123.597C279.889 123.733 279.924 123.867 279.981 124Z" fill="#408897"></path><path d="M283.019 124C282.994 123.741 282.994 123.481 283.019 123.222C283.052 122.723 283.125 121.997 283.279 121.115C283.465 120.083 283.714 119.06 284.025 118.053C284.389 116.806 284.857 115.586 285.425 114.406C286.396 112.236 287.788 110.246 289.532 108.532C289.834 108.238 290.157 107.963 290.499 107.709C290.645 107.592 290.776 107.479 290.909 107.402L291.286 107.166C291.51 107.009 291.748 106.869 291.999 106.75C292.039 106.799 290.999 107.362 289.665 108.664C287.979 110.391 286.627 112.37 285.665 114.516C285.103 115.681 284.626 116.879 284.239 118.102C283.924 119.103 283.663 120.118 283.459 121.143C283.282 122.019 283.182 122.735 283.125 123.231C283.111 123.49 283.076 123.747 283.019 124Z" fill="#408897"></path><path d="M283.019 124C282.994 123.741 282.994 123.481 283.019 123.222C283.052 122.723 283.125 121.997 283.279 121.115C283.465 120.083 283.714 119.06 284.025 118.053C284.389 116.806 284.857 115.586 285.425 114.406C286.396 112.236 287.788 110.246 289.532 108.532C289.834 108.238 290.157 107.963 290.499 107.709C290.645 107.592 290.776 107.479 290.909 107.402L291.286 107.166C291.51 107.009 291.748 106.869 291.999 106.75C292.039 106.799 290.999 107.362 289.665 108.664C287.979 110.391 286.627 112.37 285.665 114.516C285.103 115.681 284.626 116.879 284.239 118.102C283.924 119.103 283.663 120.118 283.459 121.143C283.282 122.019 283.182 122.735 283.125 123.231C283.111 123.49 283.076 123.747 283.019 124Z" fill="#408897"></path><path d="M295.019 124C294.994 123.852 294.994 123.704 295.019 123.556C295.052 123.271 295.125 122.856 295.279 122.352C295.465 121.762 295.714 121.177 296.025 120.602C296.389 119.889 296.857 119.192 297.425 118.518C298.396 117.278 299.788 116.141 301.532 115.162C301.834 114.994 302.157 114.836 302.499 114.691C302.645 114.624 302.776 114.56 302.909 114.516L303.286 114.381C303.51 114.291 303.748 114.211 303.999 114.143C304.039 114.171 302.999 114.493 301.665 115.237C299.979 116.224 298.627 117.355 297.665 118.581C297.103 119.246 296.626 119.931 296.239 120.63C295.924 121.202 295.663 121.782 295.459 122.368C295.282 122.868 295.182 123.278 295.125 123.561C295.111 123.709 295.076 123.855 295.019 124Z" fill="#408897"></path><path d="M307.019 124C306.994 123.68 306.994 123.358 307.019 123.037C307.052 122.419 307.125 121.521 307.279 120.429C307.465 119.15 307.714 117.884 308.025 116.637C308.389 115.093 308.857 113.583 309.425 112.122C310.396 109.435 311.788 106.971 313.532 104.85C313.834 104.486 314.157 104.145 314.499 103.83C314.645 103.686 314.776 103.545 314.909 103.451L315.286 103.159C315.51 102.964 315.748 102.791 315.999 102.643C316.039 102.704 314.999 103.401 313.665 105.013C311.979 107.151 310.627 109.602 309.665 112.258C309.103 113.7 308.626 115.183 308.239 116.698C307.924 117.937 307.663 119.194 307.459 120.463C307.282 121.547 307.182 122.434 307.125 123.049C307.111 123.368 307.076 123.687 307.019 124Z" fill="#408897"></path><path d="M327.981 124C328.006 123.741 328.006 123.481 327.981 123.222C327.948 122.723 327.875 121.997 327.721 121.115C327.535 120.083 327.286 119.06 326.975 118.053C326.611 116.806 326.143 115.586 325.575 114.406C324.604 112.236 323.212 110.246 321.468 108.532C321.166 108.238 320.843 107.963 320.501 107.709C320.355 107.592 320.224 107.479 320.091 107.402L319.714 107.166C319.49 107.009 319.252 106.869 319.001 106.75C318.961 106.799 320.001 107.362 321.335 108.664C323.021 110.391 324.373 112.37 325.335 114.516C325.897 115.681 326.374 116.879 326.761 118.102C327.076 119.103 327.337 120.118 327.541 121.143C327.718 122.019 327.818 122.735 327.875 123.231C327.889 123.49 327.924 123.747 327.981 124Z" fill="#408897"></path><g opacity="0.1"><path d="M411.024 94.9226C414.208 93.2755 417.957 93.0618 421.486 93.6476C423.388 93.9647 425.366 94.5298 426.662 95.9564C427.957 97.383 428.192 99.8916 426.71 101.118C425.753 101.767 424.6 102.059 423.45 101.945C420.693 101.911 417.62 101.422 415.407 103.089C414.146 104.041 413.34 105.619 411.796 106.081C411.042 106.255 410.251 106.18 409.543 105.865C408.836 105.551 408.25 105.014 407.874 104.337C407.158 102.951 407 101.342 407.433 99.8434C407.615 98.8029 408.033 97.818 408.656 96.9648C409.278 96.1116 410.088 95.4129 411.024 94.9226Z" fill="#4B9EB0"></path><path d="M403.761 80.8424C405.705 83.5991 409.488 82.7031 411.246 81.0078C413.003 79.3124 413.74 76.8726 414.416 74.5019C415.953 69.1469 417.51 63.5231 416.366 58.0648C416.095 56.416 415.381 54.8722 414.299 53.5989C413.743 52.9747 413.032 52.5074 412.239 52.2437C411.445 51.9801 410.597 51.9293 409.778 52.0965C407.869 52.5996 406.683 54.4673 405.829 56.2316C403.306 61.4779 401.983 67.2197 401.955 73.0408C401.955 75.7493 402.266 78.5956 403.796 80.8286" fill="#69B9C9"></path><path d="M398.411 84.833C400.527 82.3244 400.927 78.6648 399.99 75.5221C399.052 72.3794 396.923 69.7054 394.476 67.5276C391.594 64.9634 388.239 62.9854 384.6 61.704C383.193 61.1325 381.679 60.8739 380.162 60.9459C379.405 60.9909 378.671 61.2197 378.022 61.6124C377.374 62.005 376.831 62.5498 376.44 63.1995C375.4 65.1844 376.392 67.5827 377.474 69.5469C379.372 73.0048 381.54 76.3071 383.959 79.4229C385.903 81.9247 388.094 84.3988 391.085 85.5291C394.076 86.6593 397.13 86.5284 398.666 84.4746" fill="#4B9EB0"></path><path d="M403.629 122.772C403.732 122.359 403.789 121.936 403.802 121.511C403.891 120.595 404.008 119.444 404.139 118.065C404.309 116.366 404.569 114.678 404.918 113.007C405.368 110.971 405.981 108.975 406.751 107.038C407.511 105.107 408.536 103.291 409.797 101.642C410.829 100.301 412.145 99.2041 413.65 98.4304C414.673 97.9268 415.768 97.5851 416.896 97.4173C417.321 97.3996 417.744 97.3395 418.157 97.2381C417.731 97.1934 417.301 97.1934 416.875 97.2381C415.704 97.3267 414.557 97.6255 413.491 98.1202C411.905 98.8703 410.514 99.9765 409.425 101.352C408.107 103.024 407.043 104.882 406.269 106.866C405.487 108.831 404.876 110.86 404.442 112.931C404.109 114.622 403.879 116.332 403.753 118.051C403.643 119.512 403.602 120.698 403.581 121.497C403.55 121.923 403.566 122.35 403.629 122.772Z" fill="#408897"></path><path d="M403.863 120.126C403.89 119.93 403.89 119.73 403.863 119.534V117.859C403.863 116.405 403.863 114.303 403.932 111.704C404.063 106.501 404.51 100.912 405.372 93.0207C406.192 85.605 407.295 76.9696 408.453 71.3596C408.701 70.0846 408.949 68.9337 409.19 67.9137C409.431 66.8937 409.645 66.0391 409.824 65.3499L410.217 63.7235C410.27 63.5342 410.304 63.3404 410.32 63.1445C410.226 63.3154 410.156 63.4987 410.114 63.689C409.99 64.1163 409.824 64.647 409.631 65.2948C409.438 65.9426 409.19 66.8593 408.942 67.8586C408.694 68.8579 408.404 70.0088 408.136 71.3045C406.697 77.9406 405.616 84.6491 404.896 91.4011C404.035 99.306 403.642 106.501 403.608 111.718C403.608 114.323 403.608 116.432 403.697 117.886C403.739 118.576 403.773 119.12 403.801 119.561C403.802 119.751 403.823 119.94 403.863 120.126Z" fill="#408897"></path><path d="M403.898 106.239C403.949 105.656 403.949 105.071 403.898 104.488C403.829 103.365 403.678 101.731 403.361 99.7466C402.975 97.4223 402.46 95.1214 401.817 92.8548C401.066 90.048 400.098 87.3037 398.922 84.6466C396.915 79.7631 394.038 75.2844 390.432 71.428C389.807 70.7667 389.139 70.1473 388.433 69.5741C388.13 69.3123 387.861 69.0573 387.585 68.885L386.806 68.3543C386.343 67.9995 385.85 67.6858 385.332 67.417C385.249 67.5273 387.399 68.7954 390.156 71.7244C393.642 75.612 396.439 80.0661 398.426 84.8947C399.589 87.5156 400.575 90.2118 401.376 92.9651C402.027 95.2179 402.565 97.502 402.988 99.8086C403.354 101.78 403.56 103.392 403.678 104.509C403.706 105.09 403.78 105.669 403.898 106.239Z" fill="#408897"></path></g><g opacity="0.1"><path d="M322.969 93.7771C318.972 92.0588 314.266 91.8359 309.837 92.447C307.45 92.7778 304.967 93.3673 303.341 94.8556C301.715 96.3438 301.421 98.9608 303.28 100.241C304.481 100.917 305.929 101.222 307.372 101.103C310.832 101.067 314.69 100.557 317.467 102.297C319.05 103.289 320.062 104.935 322 105.417C322.947 105.6 323.939 105.521 324.827 105.193C325.715 104.864 326.451 104.305 326.922 103.598C327.821 102.152 328.019 100.474 327.475 98.9105C327.248 97.825 326.723 96.7976 325.941 95.9075C325.16 95.0174 324.143 94.2885 322.969 93.7771Z" fill="#408897"></path><path d="M332.085 79.0886C329.645 81.9644 324.896 81.0298 322.69 79.2611C320.485 77.4925 319.559 74.9473 318.711 72.4741C316.782 66.8878 314.827 61.021 316.263 55.3269C316.603 53.6069 317.5 51.9963 318.858 50.668C319.556 50.0168 320.448 49.5293 321.444 49.2542C322.44 48.9792 323.505 48.9262 324.533 49.1006C326.929 49.6255 328.417 51.5739 329.49 53.4144C332.655 58.8874 334.316 64.8774 334.351 70.9499C334.351 73.7754 333.962 76.7447 332.041 79.0742" fill="#69B9C9"></path><path d="M337.535 82.9013C334.536 79.948 333.969 75.6396 335.298 71.9398C336.626 68.24 339.645 65.0919 343.114 62.528C347.2 59.5093 351.956 57.1806 357.114 55.672C359.109 54.9993 361.256 54.6947 363.406 54.7795C364.479 54.8325 365.52 55.1019 366.44 55.5641C367.359 56.0264 368.129 56.6678 368.682 57.4327C370.158 59.7694 368.751 62.5929 367.217 64.9053C364.526 68.9762 361.452 72.864 358.023 76.5321C355.268 79.4774 352.161 82.3902 347.921 83.7208C343.68 85.0514 339.352 84.8973 337.174 82.4794" fill="#4B9EB0"></path><path d="M332.25 122.83C332.121 122.399 332.049 121.958 332.034 121.514C331.921 120.558 331.774 119.357 331.61 117.919C331.397 116.147 331.07 114.385 330.632 112.642C330.067 110.519 329.298 108.437 328.331 106.416C327.378 104.401 326.091 102.506 324.508 100.786C323.213 99.3872 321.562 98.2431 319.672 97.436C318.388 96.9107 317.014 96.5542 315.598 96.3791C315.064 96.3606 314.534 96.298 314.015 96.1921C314.55 96.1456 315.089 96.1456 315.624 96.1921C317.095 96.2846 318.534 96.5963 319.871 97.1124C321.862 97.895 323.609 99.0489 324.975 100.484C326.63 102.228 327.965 104.167 328.937 106.236C329.919 108.286 330.686 110.403 331.229 112.563C331.647 114.327 331.936 116.111 332.094 117.905C332.233 119.429 332.285 120.666 332.311 121.5C332.35 121.943 332.33 122.39 332.25 122.83Z" fill="#408897"></path><path d="M331.957 120.07C331.923 119.865 331.923 119.657 331.957 119.451V117.704C331.957 116.187 331.957 113.995 331.871 111.284C331.707 105.856 331.144 100.025 330.063 91.793C329.034 84.057 327.65 75.0484 326.196 69.196C325.885 67.8659 325.573 66.6653 325.271 65.6012C324.968 64.5371 324.7 63.6456 324.475 62.9267L323.982 61.2299C323.915 61.0325 323.872 60.8303 323.852 60.626C323.97 60.8042 324.058 60.9954 324.112 61.194C324.267 61.6397 324.475 62.1933 324.717 62.8692C324.959 63.545 325.271 64.5012 325.582 65.5437C325.894 66.5862 326.257 67.7869 326.594 69.1385C328.4 76.0614 329.757 83.0597 330.66 90.1034C331.741 98.3499 332.234 105.856 332.277 111.298C332.277 114.016 332.277 116.216 332.165 117.733C332.113 118.452 332.07 119.02 332.035 119.48C332.033 119.678 332.007 119.876 331.957 120.07Z" fill="#408897"></path><path d="M331.912 105.583C331.848 104.975 331.848 104.364 331.912 103.756C331.999 102.585 332.189 100.881 332.587 98.81C333.071 96.3853 333.718 93.985 334.525 91.6204C335.468 88.6924 336.682 85.8295 338.158 83.0576C340.678 77.9631 344.288 73.2908 348.815 69.2679C349.599 68.5779 350.437 67.9318 351.324 67.3339C351.704 67.0606 352.042 66.7946 352.388 66.6149L353.365 66.0613C353.947 65.6911 354.566 65.364 355.216 65.0835C355.32 65.1985 352.621 66.5214 349.161 69.577C344.786 73.6326 341.275 78.2791 338.781 83.3164C337.321 86.0505 336.084 88.8632 335.078 91.7354C334.261 94.0857 333.585 96.4684 333.054 98.8747C332.596 100.931 332.336 102.613 332.189 103.778C332.153 104.385 332.061 104.988 331.912 105.583Z" fill="#408897"></path></g><g opacity="0.1"><path d="M308.617 96.7065C312.176 94.904 316.367 94.6703 320.312 95.3113C322.439 95.6582 324.65 96.2766 326.098 97.8377C327.547 99.3988 327.809 102.144 326.152 103.486C325.083 104.196 323.793 104.516 322.508 104.391C319.426 104.354 315.99 103.818 313.517 105.643C312.107 106.684 311.206 108.411 309.48 108.916C308.636 109.108 307.752 109.025 306.961 108.681C306.17 108.336 305.516 107.749 305.096 107.008C304.295 105.491 304.119 103.732 304.603 102.091C304.806 100.952 305.273 99.8748 305.969 98.9411C306.665 98.0075 307.571 97.2429 308.617 96.7065Z" fill="#408897"></path><path d="M301.509 84.4207C303.29 86.946 306.756 86.1253 308.365 84.5722C309.975 83.0192 310.651 80.7843 311.269 78.6126C312.677 73.7072 314.104 68.5556 313.056 63.5556C312.808 62.0453 312.153 60.631 311.162 59.4647C310.653 58.8928 310.002 58.4648 309.275 58.2232C308.548 57.9817 307.771 57.9352 307.021 58.0884C305.272 58.5492 304.186 60.2601 303.403 61.8763C301.093 66.6821 299.881 71.9419 299.855 77.2742C299.855 79.7553 300.139 82.3626 301.541 84.4081" fill="#69B9C9"></path><path d="M298.365 88.3986C300.571 85.7432 300.988 81.8695 300.01 78.543C299.033 75.2165 296.813 72.386 294.262 70.0808C291.257 67.3666 287.76 65.2729 283.966 63.9165C282.499 63.3116 280.92 63.0378 279.339 63.114C278.55 63.1617 277.784 63.4039 277.108 63.8195C276.432 64.2352 275.866 64.8118 275.459 65.4995C274.374 67.6005 275.408 70.1391 276.536 72.2182C278.515 75.8784 280.776 79.3739 283.298 82.672C285.324 85.3201 287.609 87.939 290.727 89.1354C293.846 90.3317 297.029 90.1931 298.631 88.0192" fill="#4B9EB0"></path><path d="M301.389 122.83C301.483 122.452 301.536 122.065 301.547 121.675C301.629 120.835 301.736 119.781 301.856 118.518C302.012 116.962 302.25 115.415 302.57 113.884C302.982 112.02 303.544 110.192 304.249 108.417C304.945 106.648 305.884 104.984 307.039 103.474C307.985 102.245 309.19 101.241 310.568 100.532C311.506 100.071 312.509 99.7577 313.542 99.604C313.932 99.5878 314.319 99.5328 314.697 99.4398C314.307 99.399 313.913 99.399 313.523 99.4398C312.45 99.521 311.4 99.7948 310.423 100.248C308.97 100.935 307.696 101.948 306.698 103.209C305.491 104.74 304.516 106.442 303.807 108.259C303.091 110.06 302.531 111.918 302.134 113.815C301.829 115.364 301.618 116.931 301.503 118.506C301.402 119.844 301.364 120.93 301.345 121.662C301.316 122.052 301.331 122.444 301.389 122.83Z" fill="#408897"></path><path d="M301.603 120.407C301.628 120.227 301.628 120.044 301.603 119.864V118.33C301.603 116.998 301.603 115.072 301.666 112.692C301.786 107.926 302.197 102.806 302.986 95.5772C303.737 88.7842 304.747 80.8738 305.808 75.7348C306.035 74.5669 306.262 73.5126 306.483 72.5782C306.704 71.6439 306.9 70.861 307.064 70.2297L307.424 68.7398C307.472 68.5665 307.504 68.3889 307.519 68.2095C307.432 68.366 307.368 68.5339 307.329 68.7082C307.216 69.0996 307.064 69.5858 306.887 70.1792C306.71 70.7726 306.483 71.6123 306.256 72.5277C306.029 73.4431 305.763 74.4974 305.517 75.6843C304.2 81.7633 303.209 87.9085 302.55 94.0936C301.761 101.335 301.401 107.926 301.37 112.705C301.37 115.091 301.37 117.023 301.452 118.355C301.489 118.987 301.521 119.485 301.546 119.889C301.548 120.063 301.567 120.237 301.603 120.407Z" fill="#408897"></path><path d="M301.635 107.685C301.682 107.151 301.682 106.615 301.635 106.081C301.572 105.052 301.433 103.556 301.143 101.738C300.79 99.6086 300.318 97.5009 299.729 95.4246C299.041 92.8535 298.154 90.3396 297.077 87.9056C295.238 83.4321 292.603 79.3294 289.299 75.7968C288.727 75.191 288.116 74.6237 287.468 74.0986C287.191 73.8587 286.944 73.6251 286.692 73.4673L285.979 72.9811C285.554 72.6561 285.102 72.3688 284.628 72.1226C284.552 72.2236 286.522 73.3852 289.047 76.0683C292.24 79.6295 294.802 83.7096 296.623 88.1328C297.688 90.5337 298.591 93.0035 299.325 95.5256C299.921 97.5893 300.414 99.6816 300.802 101.795C301.137 103.6 301.326 105.077 301.433 106.1C301.459 106.633 301.527 107.163 301.635 107.685Z" fill="#408897"></path></g><g opacity="0.1"><path d="M190.281 98.1293C186.987 96.4237 183.109 96.2024 179.459 96.809C177.491 97.1373 175.445 97.7225 174.105 99.1998C172.765 100.677 172.522 103.275 174.055 104.545C175.045 105.217 176.238 105.52 177.427 105.402C180.279 105.366 183.458 104.859 185.747 106.586C187.051 107.571 187.885 109.206 189.482 109.684C190.262 109.865 191.08 109.787 191.812 109.461C192.544 109.135 193.15 108.579 193.538 107.878C194.279 106.443 194.443 104.777 193.995 103.225C193.807 102.147 193.374 101.128 192.73 100.244C192.086 99.3605 191.248 98.637 190.281 98.1293Z" fill="#4B9EB0"></path><path d="M198.938 86.777C196.847 89.5275 192.775 88.6336 190.884 86.942C188.993 85.2505 188.199 82.8163 187.473 80.4509C185.819 75.1081 184.143 69.497 185.374 64.0511C185.665 62.406 186.434 60.8657 187.599 59.5953C188.197 58.9725 188.961 58.5062 189.815 58.2432C190.669 57.9801 191.582 57.9294 192.464 58.0962C194.518 58.5982 195.794 60.4617 196.713 62.222C199.427 67.4564 200.851 73.1853 200.881 78.9931C200.881 81.6955 200.547 84.5354 198.901 86.7633" fill="#69B9C9"></path><path d="M202.777 92.5205C200.826 90.1512 200.457 86.6949 201.321 83.7268C202.186 80.7588 204.151 78.2333 206.407 76.1764C209.067 73.7547 212.161 71.8866 215.518 70.6763C216.816 70.1367 218.213 69.8923 219.612 69.9603C220.31 70.0029 220.988 70.2189 221.586 70.5898C222.184 70.9607 222.685 71.4752 223.045 72.0888C224.005 73.9634 223.09 76.2285 222.092 78.0836C220.341 81.3493 218.34 84.4682 216.109 87.4109C214.316 89.7737 212.295 92.1104 209.535 93.1779C206.776 94.2453 203.96 94.1217 202.542 92.182" fill="#4B9EB0"></path><path d="M197.56 122.83C197.474 122.483 197.425 122.127 197.415 121.769C197.34 120.999 197.241 120.031 197.131 118.871C196.988 117.443 196.769 116.023 196.476 114.617C196.097 112.905 195.582 111.227 194.934 109.598C194.295 107.973 193.433 106.446 192.372 105.059C191.504 103.932 190.398 103.009 189.132 102.359C188.272 101.935 187.351 101.648 186.402 101.506C186.045 101.492 185.689 101.441 185.342 101.356C185.7 101.318 186.061 101.318 186.42 101.356C187.405 101.43 188.369 101.682 189.266 102.098C190.6 102.729 191.77 103.659 192.685 104.816C193.794 106.222 194.689 107.785 195.34 109.453C195.998 111.106 196.512 112.812 196.876 114.553C197.156 115.976 197.35 117.414 197.456 118.86C197.548 120.089 197.583 121.086 197.6 121.758C197.627 122.116 197.613 122.475 197.56 122.83Z" fill="#408897"></path><path d="M197.364 120.605C197.34 120.44 197.34 120.272 197.364 120.107V118.698C197.364 117.475 197.364 115.708 197.306 113.522C197.195 109.146 196.819 104.446 196.094 97.8094C195.404 91.5729 194.477 84.3105 193.503 79.5925C193.295 78.5202 193.086 77.5523 192.883 76.6945C192.68 75.8366 192.501 75.1179 192.35 74.5383L192.02 73.1705C191.975 73.0113 191.946 72.8483 191.933 72.6836C192.012 72.8273 192.07 72.9814 192.106 73.1415C192.211 73.5008 192.35 73.9471 192.512 74.492C192.675 75.0368 192.883 75.8077 193.092 76.6481C193.3 77.4885 193.544 78.4565 193.77 79.5461C194.98 85.1271 195.889 90.7689 196.494 96.4473C197.219 103.095 197.549 109.146 197.578 113.534C197.578 115.725 197.578 117.499 197.503 118.722C197.468 119.301 197.439 119.759 197.416 120.13C197.414 120.29 197.397 120.449 197.364 120.605Z" fill="#408897"></path><path d="M197.334 108.925C197.291 108.436 197.291 107.943 197.334 107.453C197.391 106.509 197.519 105.135 197.786 103.466C198.11 101.511 198.543 99.5758 199.084 97.6695C199.716 95.3091 200.53 93.0011 201.518 90.7665C203.206 86.6595 205.626 82.8928 208.659 79.6497C209.184 79.0934 209.746 78.5726 210.34 78.0905C210.595 77.8703 210.821 77.6558 211.053 77.5109L211.708 77.0646C212.097 76.7662 212.512 76.5025 212.948 76.2764C213.018 76.3691 211.209 77.4356 208.891 79.8989C205.959 83.1684 203.607 86.9142 201.936 90.9751C200.957 93.1793 200.129 95.4468 199.455 97.7623C198.907 99.657 198.454 101.578 198.099 103.518C197.791 105.175 197.618 106.532 197.519 107.471C197.495 107.96 197.433 108.446 197.334 108.925Z" fill="#408897"></path></g><g opacity="0.1"><path d="M273.513 89.9255C277.596 87.831 282.405 87.5593 286.93 88.3042C289.369 88.7074 291.906 89.426 293.567 91.2401C295.229 93.0542 295.53 96.2443 293.629 97.8042C292.403 98.6287 290.923 99.0008 289.449 98.8559C285.913 98.8121 281.971 98.1899 279.134 100.311C277.517 101.52 276.483 103.527 274.503 104.114C273.536 104.337 272.521 104.241 271.614 103.841C270.707 103.441 269.955 102.758 269.474 101.897C268.555 100.134 268.353 98.0892 268.908 96.1829C269.141 94.8598 269.677 93.6074 270.476 92.5224C271.274 91.4374 272.313 90.5489 273.513 89.9255Z" fill="#69B9C9"></path><path d="M263.523 74.1837C266.157 78.0245 271.285 76.7762 273.667 74.4142C276.049 72.0521 277.049 68.653 277.964 65.35C280.047 57.8894 282.158 50.0543 280.607 42.4496C280.24 40.1525 279.272 38.0016 277.805 36.2276C277.051 35.3579 276.089 34.7069 275.013 34.3395C273.938 33.9722 272.788 33.9015 271.678 34.1344C269.09 34.8353 267.484 37.4374 266.325 39.8955C262.907 47.2047 261.114 55.2044 261.076 63.3144C261.076 67.088 261.496 71.0535 263.57 74.1645" fill="#69B9C9"></path><path d="M258.747 79.2444C261.177 76.3624 261.637 72.1582 260.56 68.5478C259.483 64.9374 257.036 61.8653 254.226 59.3634C250.914 56.4176 247.06 54.1452 242.88 52.673C241.263 52.0166 239.524 51.7194 237.781 51.8021C236.912 51.8539 236.068 52.1167 235.323 52.5678C234.578 53.0189 233.954 53.6447 233.505 54.3912C232.31 56.6714 233.45 59.4267 234.693 61.6832C236.873 65.6558 239.365 69.4496 242.143 73.0291C244.376 75.9032 246.894 78.7456 250.33 80.0441C253.766 81.3426 257.274 81.1921 259.04 78.8327" fill="#4B9EB0"></path><path d="M264.741 122.83C264.859 122.356 264.925 121.87 264.939 121.381C265.042 120.328 265.177 119.006 265.327 117.422C265.523 115.471 265.821 113.531 266.222 111.611C266.739 109.273 267.444 106.98 268.328 104.754C269.201 102.535 270.379 100.449 271.828 98.5548C273.013 97.014 274.525 95.7541 276.254 94.8652C277.429 94.2868 278.687 93.8941 279.983 93.7013C280.471 93.681 280.957 93.612 281.432 93.4955C280.942 93.4442 280.449 93.4442 279.959 93.4955C278.613 93.5973 277.296 93.9406 276.071 94.5089C274.249 95.3707 272.651 96.6415 271.4 98.2223C269.885 100.143 268.663 102.278 267.774 104.556C266.875 106.814 266.173 109.145 265.676 111.524C265.293 113.467 265.029 115.431 264.884 117.407C264.757 119.085 264.71 120.447 264.686 121.365C264.65 121.854 264.669 122.345 264.741 122.83Z" fill="#408897"></path><path d="M265.009 119.79C265.041 119.564 265.041 119.335 265.009 119.109V117.185C265.009 115.515 265.009 113.1 265.089 110.115C265.239 104.137 265.754 97.7159 266.743 88.6503C267.686 80.131 268.952 70.2103 270.283 63.7654C270.568 62.3006 270.853 60.9784 271.13 59.8066C271.407 58.6348 271.652 57.653 271.858 56.8613L272.309 54.9927C272.37 54.7754 272.41 54.5526 272.428 54.3276C272.32 54.5239 272.24 54.7345 272.191 54.9531C272.048 55.444 271.858 56.0537 271.636 56.7979C271.415 57.5422 271.13 58.5952 270.845 59.7433C270.56 60.8913 270.227 62.2136 269.918 63.7021C268.266 71.3258 267.024 79.0328 266.197 86.7896C265.207 95.8711 264.756 104.137 264.717 110.131C264.717 113.123 264.717 115.546 264.819 117.217C264.867 118.009 264.907 118.634 264.938 119.141C264.94 119.359 264.964 119.577 265.009 119.79Z" fill="#408897"></path><path d="M265.05 103.836C265.109 103.167 265.109 102.494 265.05 101.825C264.971 100.534 264.797 98.6579 264.433 96.3776C263.99 93.7074 263.398 91.0641 262.659 88.4601C261.796 85.2356 260.684 82.0828 259.334 79.0302C257.028 73.4199 253.723 68.2746 249.579 63.8444C248.862 63.0845 248.095 62.373 247.283 61.7145C246.935 61.4137 246.626 61.1207 246.309 60.9228L245.415 60.3131C244.882 59.9055 244.315 59.5452 243.72 59.2363C243.625 59.363 246.096 60.8198 249.263 64.1848C253.267 68.6511 256.48 73.768 258.764 79.3153C260.1 82.3262 261.232 85.4237 262.152 88.5868C262.901 91.1749 263.519 93.7989 264.005 96.4489C264.425 98.7133 264.662 100.566 264.797 101.849C264.83 102.517 264.914 103.181 265.05 103.836Z" fill="#408897"></path></g><path d="M405.651 100.073C403.049 98.7274 399.986 98.5528 397.102 99.0315C395.548 99.2905 393.932 99.7523 392.873 100.918C391.814 102.084 391.623 104.134 392.834 105.136C393.615 105.666 394.558 105.905 395.497 105.812C397.75 105.784 400.262 105.384 402.069 106.747C403.1 107.524 403.759 108.813 405.02 109.191C405.637 109.334 406.283 109.272 406.861 109.015C407.439 108.758 407.918 108.319 408.225 107.766C408.81 106.633 408.939 105.319 408.585 104.094C408.437 103.244 408.095 102.439 407.586 101.742C407.078 101.045 406.415 100.474 405.651 100.073Z" fill="#4B9EB0"></path><path d="M411.586 88.568C409.998 90.8206 406.906 90.0885 405.47 88.7031C404.034 87.3178 403.431 85.3242 402.879 83.3869C401.624 79.0112 400.351 74.4159 401.286 69.9557C401.507 68.6085 402.091 67.347 402.975 66.3065C403.43 65.7964 404.01 65.4146 404.658 65.1991C405.307 64.9837 406 64.9422 406.669 65.0788C408.229 65.4899 409.198 67.0161 409.896 68.4577C411.957 72.7447 413.038 77.4365 413.061 82.1931C413.061 84.4063 412.808 86.7321 411.558 88.5567" fill="#69B9C9"></path><path d="M415.957 91.8288C414.228 89.7789 413.902 86.7886 414.668 84.2206C415.433 81.6526 417.174 79.4676 419.173 77.688C421.528 75.5928 424.269 73.9765 427.243 72.9294C428.393 72.4625 429.63 72.2511 430.87 72.3099C431.488 72.3467 432.088 72.5337 432.618 72.8545C433.148 73.1754 433.591 73.6205 433.911 74.1514C434.761 75.7733 433.95 77.7331 433.066 79.3381C431.515 82.1636 429.743 84.862 427.767 87.4081C426.178 89.4523 424.388 91.474 421.944 92.3976C419.499 93.3212 417.005 93.2142 415.749 91.536" fill="#4B9EB0"></path><path d="M411.694 122.83C411.61 122.493 411.563 122.147 411.553 121.8C411.48 121.051 411.384 120.11 411.277 118.984C411.138 117.596 410.926 116.216 410.64 114.85C410.273 113.187 409.772 111.556 409.142 109.973C408.521 108.395 407.684 106.911 406.653 105.564C405.81 104.468 404.735 103.572 403.505 102.94C402.669 102.528 401.774 102.249 400.853 102.112C400.505 102.097 400.16 102.048 399.822 101.965C400.17 101.929 400.522 101.929 400.87 101.965C401.827 102.038 402.764 102.282 403.635 102.686C404.931 103.299 406.068 104.203 406.957 105.327C408.035 106.694 408.904 108.212 409.537 109.833C410.176 111.438 410.675 113.097 411.029 114.788C411.301 116.17 411.489 117.568 411.592 118.973C411.682 120.166 411.716 121.135 411.733 121.788C411.759 122.136 411.745 122.485 411.694 122.83Z" fill="#69B9C9"></path><path d="M411.503 120.668C411.48 120.507 411.48 120.344 411.503 120.184V118.815C411.503 117.627 411.503 115.909 411.447 113.786C411.34 109.534 410.973 104.967 410.27 98.5191C409.599 92.4596 408.698 85.4033 407.752 80.8192C407.549 79.7774 407.347 78.8369 407.15 78.0035C406.953 77.17 406.778 76.4717 406.632 75.9085L406.311 74.5795C406.267 74.4249 406.239 74.2665 406.226 74.1064C406.303 74.246 406.36 74.3958 406.395 74.5513C406.496 74.9005 406.632 75.3341 406.789 75.8635C406.947 76.3929 407.15 77.1419 407.352 77.9584C407.555 78.775 407.792 79.7155 408.011 80.7742C409.187 86.1968 410.07 91.6785 410.658 97.1957C411.362 103.655 411.683 109.534 411.711 113.797C411.711 115.926 411.711 117.649 411.638 118.838C411.604 119.401 411.576 119.846 411.554 120.206C411.552 120.361 411.535 120.516 411.503 120.668Z" fill="#69B9C9"></path><path d="M411.474 109.32C411.432 108.844 411.432 108.366 411.474 107.89C411.53 106.972 411.654 105.637 411.913 104.015C412.228 102.116 412.649 100.236 413.174 98.3836C413.788 96.0902 414.579 93.8477 415.54 91.6765C417.18 87.686 419.531 84.0263 422.478 80.8752C422.988 80.3348 423.534 79.8287 424.111 79.3603C424.359 79.1463 424.578 78.938 424.804 78.7972L425.44 78.3635C425.819 78.0736 426.222 77.8173 426.645 77.5977C426.713 77.6878 424.956 78.724 422.703 81.1174C419.855 84.2941 417.569 87.9336 415.945 91.8792C414.995 94.0208 414.189 96.224 413.535 98.4738C413.003 100.315 412.563 102.181 412.217 104.066C411.919 105.676 411.75 106.994 411.654 107.907C411.631 108.382 411.57 108.854 411.474 109.32Z" fill="#69B9C9"></path><path d="M367.078 92.5967C370.535 90.8085 374.605 90.5766 378.435 91.2125C380.5 91.5567 382.648 92.1702 384.054 93.7189C385.461 95.2676 385.715 97.991 384.106 99.3228C383.068 100.027 381.816 100.344 380.568 100.221C377.575 100.183 374.238 99.652 371.836 101.463C370.467 102.495 369.592 104.208 367.916 104.71C367.097 104.9 366.239 104.818 365.47 104.476C364.702 104.134 364.066 103.552 363.659 102.817C362.881 101.312 362.71 99.566 363.18 97.9386C363.377 96.809 363.831 95.7399 364.507 94.8136C365.183 93.8874 366.062 93.1288 367.078 92.5967Z" fill="#408897"></path><path d="M359.193 77.3112C361.303 80.3039 365.411 79.3313 367.318 77.4908C369.226 75.6502 370.027 73.0017 370.76 70.428C372.428 64.6146 374.119 58.5095 372.877 52.5839C372.583 50.794 371.807 49.118 370.633 47.7358C370.029 47.0581 369.258 46.5508 368.397 46.2646C367.535 45.9784 366.614 45.9232 365.725 46.1047C363.652 46.6509 362.365 48.6785 361.438 50.5938C358.7 56.2892 357.263 62.5225 357.233 68.8418C357.233 71.7822 357.57 74.8721 359.231 77.2962" fill="#69B9C9"></path><path d="M354.479 81.279C357.074 78.2056 357.564 73.7222 356.414 69.8721C355.265 66.0219 352.654 62.7459 349.654 60.0778C346.12 56.9364 342.007 54.5131 337.545 52.9432C335.82 52.2431 333.963 51.9262 332.103 52.0144C331.175 52.0696 330.275 52.3499 329.479 52.831C328.684 53.312 328.019 53.9794 327.54 54.7754C326.264 57.2071 327.481 60.1454 328.807 62.5517C331.134 66.788 333.793 70.8337 336.759 74.651C339.142 77.7159 341.829 80.747 345.497 82.1317C349.164 83.5165 352.908 83.356 354.792 80.8399" fill="#4B9EB0"></path><path d="M359.05 122.83C359.161 122.382 359.224 121.923 359.237 121.461C359.335 120.466 359.462 119.216 359.604 117.72C359.788 115.876 360.071 114.043 360.449 112.228C360.938 110.019 361.604 107.852 362.439 105.749C363.264 103.652 364.377 101.681 365.746 99.8909C366.867 98.4349 368.295 97.2444 369.929 96.4044C371.039 95.8578 372.228 95.4868 373.453 95.3046C373.914 95.2854 374.373 95.2202 374.822 95.1101C374.359 95.0616 373.893 95.0616 373.43 95.1101C372.158 95.2063 370.914 95.5307 369.757 96.0677C368.035 96.8821 366.524 98.0829 365.342 99.5767C363.911 101.392 362.756 103.409 361.916 105.562C361.067 107.696 360.403 109.898 359.933 112.146C359.572 113.982 359.322 115.839 359.185 117.705C359.065 119.291 359.02 120.578 358.998 121.446C358.964 121.908 358.981 122.372 359.05 122.83Z" fill="#69B9C9"></path><path d="M359.304 119.957C359.333 119.744 359.333 119.527 359.304 119.314V117.496C359.304 115.917 359.304 113.635 359.378 110.815C359.521 105.166 360.007 99.0982 360.942 90.5316C361.832 82.4812 363.029 73.1066 364.286 67.0164C364.556 65.6323 364.825 64.3828 365.087 63.2755C365.349 62.1682 365.581 61.2405 365.775 60.4923L366.202 58.7266C366.259 58.5212 366.297 58.3107 366.314 58.0981C366.212 58.2836 366.136 58.4826 366.09 58.6892C365.955 59.1531 365.775 59.7292 365.566 60.4325C365.356 61.1358 365.087 62.1308 364.818 63.2157C364.548 64.3005 364.234 65.55 363.942 66.9566C362.381 74.1607 361.207 81.4435 360.426 88.7734C359.491 97.355 359.064 105.166 359.027 110.83C359.027 113.658 359.027 115.947 359.124 117.526C359.169 118.274 359.206 118.865 359.236 119.344C359.238 119.55 359.26 119.756 359.304 119.957Z" fill="#69B9C9"></path><path d="M359.342 104.882C359.398 104.249 359.398 103.613 359.342 102.981C359.267 101.762 359.103 99.9885 358.759 97.8338C358.34 95.3105 357.781 92.8127 357.083 90.352C356.267 87.305 355.217 84.3258 353.94 81.4412C351.761 76.1397 348.638 71.2776 344.723 67.0912C344.045 66.3732 343.32 65.7009 342.553 65.0786C342.224 64.7943 341.932 64.5175 341.633 64.3304L340.787 63.7543C340.284 63.3691 339.749 63.0287 339.186 62.7368C339.097 62.8565 341.431 64.2332 344.424 67.4129C348.208 71.6333 351.244 76.4686 353.402 81.7106C354.664 84.5558 355.734 87.4828 356.604 90.4717C357.311 92.9175 357.895 95.397 358.355 97.9011C358.751 100.041 358.976 101.792 359.103 103.004C359.134 103.635 359.214 104.263 359.342 104.882Z" fill="#69B9C9"></path><path d="M300.836 99.5272C297.661 97.9194 293.922 97.7108 290.403 98.2826C288.507 98.5921 286.534 99.1437 285.242 100.536C283.95 101.929 283.716 104.378 285.194 105.575C286.148 106.208 287.298 106.493 288.445 106.382C291.194 106.349 294.259 105.871 296.465 107.499C297.723 108.427 298.527 109.968 300.066 110.419C300.818 110.589 301.607 110.516 302.313 110.209C303.018 109.901 303.602 109.378 303.977 108.717C304.691 107.363 304.849 105.794 304.417 104.33C304.236 103.315 303.819 102.353 303.198 101.521C302.577 100.688 301.769 100.006 300.836 99.5272Z" fill="#408897"></path><path d="M307.176 88.568C305.588 90.8206 302.496 90.0885 301.06 88.7031C299.624 87.3178 299.021 85.3242 298.469 83.3869C297.213 79.0112 295.941 74.4159 296.876 69.9557C297.097 68.6085 297.681 67.347 298.565 66.3065C299.02 65.7964 299.6 65.4146 300.248 65.1991C300.896 64.9837 301.59 64.9422 302.259 65.0788C303.819 65.4899 304.788 67.0161 305.486 68.4577C307.547 72.7446 308.628 77.4365 308.651 82.1931C308.651 84.4063 308.398 86.7321 307.148 88.5567" fill="#69B9C9"></path><path d="M309.981 92.1163C308.013 89.7477 307.641 86.2923 308.513 83.3249C309.385 80.3576 311.365 77.8327 313.64 75.7764C316.321 73.3553 319.441 71.4876 322.825 70.2777C324.134 69.7382 325.542 69.4939 326.953 69.5619C327.656 69.6044 328.339 69.8204 328.943 70.1912C329.546 70.562 330.051 71.0763 330.414 71.6898C331.382 73.5639 330.459 75.8285 329.452 77.6831C327.687 80.948 325.671 84.0661 323.421 87.0081C321.614 89.3703 319.576 91.7064 316.794 92.7736C314.012 93.8408 311.173 93.7172 309.744 91.778" fill="#4B9EB0"></path><path d="M307.283 122.83C307.2 122.493 307.152 122.147 307.143 121.8C307.069 121.051 306.974 120.11 306.867 118.984C306.728 117.596 306.515 116.216 306.23 114.85C305.862 113.187 305.361 111.556 304.732 109.973C304.111 108.395 303.274 106.911 302.243 105.564C301.4 104.468 300.325 103.572 299.095 102.94C298.259 102.528 297.364 102.249 296.443 102.112C296.095 102.097 295.75 102.048 295.412 101.965C295.76 101.929 296.111 101.929 296.46 101.965C297.417 102.038 298.354 102.282 299.225 102.686C300.521 103.299 301.658 104.203 302.547 105.327C303.625 106.694 304.494 108.212 305.127 109.833C305.766 111.438 306.265 113.097 306.619 114.788C306.891 116.17 307.079 117.568 307.182 118.973C307.272 120.166 307.306 121.135 307.323 121.788C307.348 122.136 307.335 122.485 307.283 122.83Z" fill="#69B9C9"></path><path d="M307.093 120.668C307.07 120.508 307.07 120.345 307.093 120.184V118.816C307.093 117.627 307.093 115.91 307.036 113.787C306.929 109.535 306.563 104.968 305.859 98.5196C305.189 92.4601 304.288 85.4038 303.342 80.8197C303.139 79.7779 302.937 78.8374 302.739 78.004C302.542 77.1705 302.368 76.4722 302.221 75.909L301.9 74.58C301.857 74.4254 301.829 74.267 301.816 74.1069C301.893 74.2465 301.95 74.3963 301.985 74.5518C302.086 74.901 302.221 75.3346 302.379 75.864C302.537 76.3933 302.739 77.1423 302.942 77.9589C303.145 78.7755 303.381 79.716 303.601 80.7747C304.776 86.1973 305.66 91.679 306.248 97.1962C306.952 103.656 307.273 109.535 307.301 113.798C307.301 115.927 307.301 117.65 307.228 118.838C307.194 119.401 307.166 119.846 307.143 120.207C307.142 120.362 307.125 120.517 307.093 120.668Z" fill="#69B9C9"></path><path d="M307.064 109.32C307.022 108.844 307.022 108.366 307.064 107.89C307.12 106.972 307.244 105.637 307.503 104.015C307.818 102.116 308.239 100.236 308.764 98.3836C309.378 96.0902 310.169 93.8477 311.13 91.6765C312.77 87.686 315.121 84.0263 318.068 80.8752C318.578 80.3348 319.123 79.8287 319.701 79.3603C319.948 79.1463 320.168 78.938 320.393 78.7972L321.03 78.3635C321.408 78.0736 321.812 77.8173 322.235 77.5977C322.302 77.6878 320.545 78.724 318.293 81.1174C315.444 84.2941 313.159 87.9336 311.535 91.8792C310.585 94.0208 309.779 96.224 309.125 98.4737C308.592 100.315 308.153 102.181 307.807 104.066C307.508 105.676 307.339 106.994 307.244 107.907C307.22 108.382 307.16 108.854 307.064 109.32Z" fill="#69B9C9"></path><path d="M247.083 96.593C243.827 94.9229 239.993 94.7062 236.385 95.3002C234.44 95.6216 232.417 96.1947 231.092 97.6412C229.768 99.0877 229.528 101.631 231.043 102.875C232.021 103.533 233.201 103.829 234.377 103.714C237.196 103.679 240.339 103.183 242.601 104.874C243.891 105.838 244.715 107.438 246.294 107.907C247.065 108.084 247.874 108.007 248.597 107.688C249.321 107.369 249.92 106.825 250.304 106.139C251.036 104.733 251.198 103.102 250.755 101.582C250.569 100.527 250.142 99.5287 249.505 98.6636C248.868 97.7985 248.04 97.0901 247.083 96.593Z" fill="#69B9C9"></path><path d="M255.049 84.0411C252.948 87.1036 248.859 86.1083 246.96 84.2249C245.061 82.3415 244.264 79.6312 243.534 76.9974C241.873 71.0486 240.19 64.8011 241.426 58.7374C241.719 56.9058 242.492 55.1907 243.661 53.7762C244.262 53.0828 245.029 52.5636 245.887 52.2707C246.744 51.9778 247.661 51.9214 248.547 52.1072C250.61 52.6661 251.891 54.7409 252.814 56.7009C255.54 62.529 256.97 68.9077 257 75.3743C257 78.3832 256.665 81.5452 255.011 84.0258" fill="#69B9C9"></path><path d="M258.857 88.0764C256.919 85.7784 256.553 82.4261 257.412 79.5473C258.27 76.6685 260.221 74.219 262.462 72.224C265.103 69.8751 268.176 68.0632 271.509 66.8893C272.798 66.3659 274.185 66.1289 275.575 66.1949C276.268 66.2361 276.941 66.4457 277.535 66.8054C278.129 67.1651 278.626 67.6641 278.984 68.2593C279.937 70.0775 279.028 72.2745 278.037 74.0738C276.298 77.2413 274.312 80.2664 272.096 83.1206C270.316 85.4123 268.308 87.6787 265.568 88.7141C262.828 89.7494 260.032 89.6295 258.624 87.7481" fill="#4B9EB0"></path><path d="M254.077 122.83C253.983 122.452 253.931 122.065 253.919 121.675C253.837 120.835 253.73 119.781 253.61 118.518C253.454 116.962 253.216 115.415 252.897 113.884C252.484 112.02 251.923 110.192 251.217 108.417C250.521 106.648 249.582 104.984 248.427 103.474C247.482 102.245 246.277 101.241 244.898 100.532C243.961 100.071 242.958 99.7577 241.924 99.604C241.535 99.5878 241.148 99.5328 240.769 99.4398C241.159 99.399 241.553 99.399 241.943 99.4398C243.017 99.521 244.067 99.7948 245.043 100.248C246.496 100.935 247.771 101.948 248.768 103.209C249.976 104.74 250.95 106.442 251.659 108.259C252.376 110.06 252.936 111.918 253.332 113.815C253.637 115.364 253.848 116.931 253.964 118.506C254.065 119.844 254.103 120.93 254.121 121.662C254.15 122.052 254.135 122.444 254.077 122.83Z" fill="#69B9C9"></path><path d="M253.864 120.406C253.839 120.226 253.839 120.043 253.864 119.863V118.329C253.864 116.997 253.864 115.071 253.801 112.691C253.681 107.925 253.27 102.805 252.481 95.5762C251.73 88.7832 250.72 80.8728 249.659 75.7338C249.432 74.5659 249.205 73.5116 248.984 72.5772C248.763 71.6429 248.567 70.86 248.403 70.2287L248.043 68.7388C247.994 68.5655 247.963 68.3879 247.948 68.2085C248.035 68.365 248.098 68.5329 248.138 68.7072C248.251 69.0987 248.403 69.5848 248.58 70.1782C248.756 70.7717 248.984 71.6113 249.211 72.5267C249.438 73.4422 249.703 74.4965 249.95 75.6833C251.267 81.7623 252.258 87.9075 252.917 94.0926C253.706 101.334 254.066 107.925 254.097 112.704C254.097 115.09 254.097 117.022 254.015 118.354C253.977 118.986 253.946 119.484 253.921 119.888C253.919 120.062 253.9 120.236 253.864 120.406Z" fill="#69B9C9"></path><path d="M253.831 107.685C253.784 107.151 253.784 106.615 253.831 106.081C253.894 105.052 254.033 103.556 254.323 101.738C254.677 99.6086 255.149 97.5009 255.738 95.4246C256.426 92.8535 257.312 90.3396 258.389 87.9056C260.228 83.4321 262.863 79.3294 266.167 75.7968C266.739 75.191 267.351 74.6237 267.998 74.0986C268.276 73.8587 268.522 73.6251 268.774 73.4673L269.488 72.9811C269.912 72.6561 270.364 72.3688 270.839 72.1226C270.915 72.2236 268.945 73.3852 266.42 76.0683C263.226 79.6295 260.664 83.7096 258.844 88.1328C257.778 90.5337 256.875 93.0035 256.142 95.5256C255.545 97.5893 255.052 99.6816 254.664 101.795C254.33 103.6 254.14 105.077 254.033 106.1C254.007 106.633 253.939 107.163 253.831 107.685Z" fill="#69B9C9"></path><path d="M202.127 106.892C204.252 105.792 206.754 105.649 209.109 106.041C210.378 106.252 211.699 106.63 212.563 107.583C213.428 108.536 213.584 110.213 212.596 111.032C211.957 111.465 211.187 111.661 210.42 111.585C208.58 111.562 206.528 111.235 205.052 112.349C204.21 112.985 203.672 114.039 202.642 114.348C202.138 114.465 201.61 114.414 201.138 114.204C200.666 113.994 200.275 113.635 200.024 113.183C199.546 112.256 199.441 111.182 199.73 110.18C199.851 109.485 200.13 108.827 200.546 108.257C200.961 107.687 201.502 107.22 202.127 106.892Z" fill="#4B9EB0"></path><path d="M196.54 99.5677C197.89 101.342 200.517 100.766 201.737 99.6742C202.957 98.5827 203.469 97.0121 203.938 95.4859C205.005 92.0386 206.087 88.4182 205.292 84.9043C205.104 83.8429 204.608 82.849 203.857 82.0293C203.471 81.6275 202.978 81.3266 202.427 81.1569C201.876 80.9872 201.287 80.9545 200.718 81.0621C199.392 81.386 198.569 82.5883 197.976 83.7241C196.225 87.1015 195.306 90.7979 195.287 94.5453C195.287 96.289 195.502 98.1213 196.564 99.5588" fill="#69B9C9"></path><path d="M194.063 103.274C195.322 101.745 195.56 99.5148 195.002 97.5997C194.444 95.6846 193.177 94.0551 191.721 92.7279C190.005 91.1654 188.008 89.96 185.842 89.1791C185.005 88.8309 184.104 88.6733 183.201 88.7171C182.75 88.7446 182.313 88.884 181.927 89.1233C181.541 89.3626 181.218 89.6945 180.986 90.0905C180.366 91.3 180.957 92.7615 181.601 93.9585C182.731 96.0656 184.021 98.078 185.461 99.9767C186.618 101.501 187.922 103.009 189.702 103.698C191.483 104.386 193.3 104.307 194.215 103.055" fill="#4B9EB0"></path><path d="M197.43 122.83C197.485 122.606 197.517 122.376 197.523 122.146C197.572 121.648 197.635 121.024 197.706 120.276C197.799 119.354 197.94 118.438 198.129 117.531C198.373 116.426 198.706 115.343 199.124 114.292C199.536 113.244 200.092 112.259 200.777 111.364C201.337 110.636 202.05 110.041 202.867 109.621C203.422 109.348 204.017 109.163 204.629 109.071C204.859 109.062 205.089 109.029 205.313 108.974C205.082 108.95 204.849 108.95 204.617 108.974C203.982 109.022 203.36 109.184 202.781 109.453C201.921 109.86 201.165 110.46 200.575 111.207C199.859 112.114 199.282 113.122 198.862 114.199C198.437 115.265 198.106 116.366 197.871 117.49C197.69 118.407 197.565 119.335 197.497 120.268C197.437 121.061 197.415 121.704 197.403 122.138C197.386 122.369 197.395 122.601 197.43 122.83Z" fill="#69B9C9"></path><path d="M197.556 121.394C197.571 121.288 197.571 121.18 197.556 121.073V120.164C197.556 119.375 197.556 118.234 197.594 116.824C197.665 114.001 197.908 110.968 198.375 106.686C198.82 102.662 199.419 97.9761 200.047 94.9319C200.182 94.2401 200.316 93.6155 200.447 93.062C200.578 92.5086 200.694 92.0448 200.791 91.6708L201.004 90.7883C201.033 90.6856 201.052 90.5804 201.061 90.4741C201.009 90.5668 200.972 90.6663 200.948 90.7696C200.881 91.0014 200.791 91.2894 200.687 91.6409C200.582 91.9925 200.447 92.4899 200.313 93.0321C200.178 93.5744 200.021 94.1989 199.875 94.902C199.095 98.503 198.508 102.143 198.117 105.807C197.65 110.097 197.437 114.001 197.418 116.832C197.418 118.246 197.418 119.39 197.467 120.179C197.489 120.553 197.508 120.848 197.523 121.088C197.524 121.191 197.535 121.294 197.556 121.394Z" fill="#69B9C9"></path><path d="M197.576 113.859C197.604 113.543 197.604 113.225 197.576 112.909C197.538 112.299 197.456 111.413 197.284 110.336C197.075 109.074 196.795 107.826 196.446 106.596C196.039 105.073 195.514 103.584 194.876 102.142C193.786 99.4919 192.225 97.0616 190.268 94.969C189.929 94.6101 189.567 94.2741 189.184 93.963C189.019 93.8209 188.873 93.6825 188.724 93.5891L188.301 93.3011C188.05 93.1085 187.782 92.9384 187.501 92.7925C187.456 92.8523 188.623 93.5404 190.119 95.1298C192.01 97.2394 193.528 99.6563 194.607 102.277C195.238 103.699 195.772 105.162 196.207 106.656C196.561 107.878 196.853 109.118 197.082 110.369C197.28 111.439 197.393 112.314 197.456 112.92C197.472 113.235 197.512 113.549 197.576 113.859Z" fill="#69B9C9"></path></svg>